<svg xmlns="http://www.w3.org/2000/svg" viewBox="0 0 512 512">
  <defs>
    <linearGradient id="gold" x1="0%" y1="0%" x2="100%" y2="100%">
      <stop offset="0%" style="stop-color:#D4A853"/>
      <stop offset="50%" style="stop-color:#C9A227"/>
      <stop offset="100%" style="stop-color:#B8860B"/>
    </linearGradient>
    <linearGradient id="bg" x1="0%" y1="0%" x2="100%" y2="100%">
      <stop offset="0%" style="stop-color:#12121A"/>
      <stop offset="100%" style="stop-color:#08080A"/>
    </linearGradient>
  </defs>
  
  <!-- Background -->
  <rect width="512" height="512" rx="96" fill="url(#bg)"/>
  
  <!-- Border glow -->
  <rect x="8" y="8" width="496" height="496" rx="88" fill="none" stroke="url(#gold)" stroke-width="3" opacity="0.6"/>
  
  <!-- N letter - stylized -->
  <path d="M160 380V132h40l112 168V132h40v248h-40L200 212v168h-40z" fill="url(#gold)"/>
  
  <!-- Decorative elements -->
  <circle cx="256" cy="90" r="6" fill="url(#gold)" opacity="0.8"/>
  <circle cx="256" cy="422" r="6" fill="url(#gold)" opacity="0.8"/>
  
  <!-- Corner accents -->
  <path d="M64 48h32v4H68v28h-4z" fill="url(#gold)" opacity="0.5"/>
  <path d="M448 48h-32v4h28v28h4z" fill="url(#gold)" opacity="0.5"/>
  <path d="M64 464h32v-4H68v-28h-4z" fill="url(#gold)" opacity="0.5"/>
  <path d="M448 464h-32v-4h28v-28h4z" fill="url(#gold)" opacity="0.5"/>
</svg>
